<?xml version="1.0" encoding="UTF-8" standalone="no"?>
<svg
   xmlns:dc="http://purl.org/dc/elements/1.1/"
   xmlns:cc="http://creativecommons.org/ns#"
   xmlns:rdf="http://www.w3.org/1999/02/22-rdf-syntax-ns#"
   xmlns:svg="http://www.w3.org/2000/svg"
   xmlns="http://www.w3.org/2000/svg"
   xmlns:sodipodi="http://sodipodi.sourceforge.net/DTD/sodipodi-0.dtd"
   xmlns:inkscape="http://www.inkscape.org/namespaces/inkscape"
   width="109mm"
   height="205.5mm"
   viewBox="0 0 109 205.5"
   version="1.1"
   id="svg8"
   inkscape:version="1.0.2-2 (e86c870879, 2021-01-15)"
   sodipodi:docname="logoStranicaSVGfinal.svg"
   inkscape:export-filename="C:\Users\TEST\Desktop\multimedija\slike\LOGO-stranica\logoStranicaSVGfinal.png"
   inkscape:export-xdpi="96"
   inkscape:export-ydpi="96">
  <defs
     id="defs2">
    <inkscape:path-effect
       effect="spiro"
       id="path-effect955"
       is_visible="true"
       lpeversion="1" />
    <inkscape:path-effect
       effect="spiro"
       id="path-effect951"
       is_visible="true"
       lpeversion="1" />
    <inkscape:path-effect
       effect="spiro"
       id="path-effect927"
       is_visible="true"
       lpeversion="1" />
    <inkscape:path-effect
       effect="spiro"
       id="path-effect923"
       is_visible="true"
       lpeversion="1" />
  </defs>
  <sodipodi:namedview
     id="base"
     pagecolor="#ffffff"
     bordercolor="#666666"
     borderopacity="1.0"
     inkscape:pageopacity="0.0"
     inkscape:pageshadow="2"
     inkscape:zoom="0.74475309"
     inkscape:cx="147.09836"
     inkscape:cy="450.48487"
     inkscape:document-units="mm"
     inkscape:current-layer="layer1"
     inkscape:document-rotation="0"
     showgrid="false"
     inkscape:window-width="1920"
     inkscape:window-height="1017"
     inkscape:window-x="-8"
     inkscape:window-y="-8"
     inkscape:window-maximized="1" />
  <metadata
     id="metadata5">
    <rdf:RDF>
      <cc:Work
         rdf:about="">
        <dc:format>image/svg+xml</dc:format>
        <dc:type
           rdf:resource="http://purl.org/dc/dcmitype/StillImage" />
        <dc:title></dc:title>
      </cc:Work>
    </rdf:RDF>
  </metadata>
  <g
     inkscape:label="Layer 1"
     inkscape:groupmode="layer"
     id="layer1">
    <path
       id="rect833-1"
       style="fill:#000000;fill-opacity:1;stroke:#050000;stroke-width:1.29683;stroke-linecap:round;stroke-linejoin:round;stroke-opacity:1;paint-order:markers stroke fill"
       d="m 48.777439,25.162606 v 11.73949 h -19.58169 c -7.57908,0 -13.68101,6.10195 -13.68101,13.681 0,7.57906 6.10193,13.6806 13.68101,13.6806 h 19.58169 v 11.098441 h -12.59431 c -18.68795,0 -33.7328735,-11.194511 -33.7328735,-25.099761 0,-13.90525 15.0449235,-25.09977 33.7328735,-25.09977 z"
       sodipodi:nodetypes="ccsssccsssc" />
    <path
       id="rect833-7"
       style="fill:#000000;fill-opacity:1;stroke:#050000;stroke-width:1.29683;stroke-linecap:round;stroke-linejoin:round;stroke-opacity:1;paint-order:markers stroke fill"
       d="m 48.777439,103.36479 v 11.73949 h -19.58171 c -7.57908,0 -13.68101,6.10195 -13.68101,13.681 0,7.57906 6.10193,13.6806 13.68101,13.6806 h 19.58171 v 11.09844 h -12.59432 c -18.68796,0 -33.7328745,-11.19451 -33.7328745,-25.09976 0,-13.90525 15.0449145,-25.09977 33.7328745,-25.09977 z"
       sodipodi:nodetypes="ccsssccsssc" />
    <ellipse
       style="fill:#fffffd;fill-opacity:1;stroke:#000000;stroke-width:1.9;stroke-linecap:round;stroke-linejoin:round;stroke-opacity:1;paint-order:markers stroke fill"
       id="path919"
       cx="63.592094"
       cy="26.644735"
       rx="6.7499995"
       ry="1.7763158" />
    <path
       style="fill:none;stroke:#000000;stroke-width:0.264583px;stroke-linecap:butt;stroke-linejoin:miter;stroke-opacity:1"
       d="m 92.368419,31.61842 c 0.39184,-0.51029 0.917001,-0.917279 1.508925,-1.16939 0.591925,-0.252111 1.249262,-0.348766 1.888704,-0.277716 0.639442,0.07105 1.259529,0.309641 1.781675,0.685537 0.522146,0.375897 0.945158,0.888239 1.215426,1.472097 0.213389,0.460981 0.330906,0.959174 0.469452,1.44789 0.138546,0.488716 0.303286,0.979292 0.596338,1.394213 0.279371,0.395545 0.668671,0.708601 1.104121,0.920466 0.43545,0.211864 0.916,0.324412 1.39932,0.354546 0.96663,0.06027 1.9266,-0.203985 2.82551,-0.564484 2.06616,-0.828611 3.91761,-2.186338 5.32895,-3.907895"
       id="path921"
       inkscape:path-effect="#path-effect923"
       inkscape:original-d="m 92.368419,31.61842 c 2.05542,-0.461553 5.17348,-1.731976 6.39473,0.710528 0.28655,0.57309 0.64443,2.420747 1.06579,2.842103 0.728781,0.728782 4.326581,0.911001 5.328951,0.710528 2.5854,-0.51708 3.47579,-3.907895 5.32895,-3.907895" />
    <g
       id="g978"
       transform="matrix(1,0,0,1.0775831,-145.9068,-6.4351644)">
      <ellipse
         style="fill:#ffffff;fill-opacity:1;stroke:#000000;stroke-width:1.9;stroke-linecap:round;stroke-linejoin:round;stroke-opacity:1;paint-order:markers stroke fill"
         id="path965"
         cx="184.73683"
         cy="15.80921"
         rx="7.8157892"
         ry="7.9934211" />
      <path
         id="rect967"
         style="fill:#ffffff;fill-opacity:1;stroke:#000000;stroke-width:7.1811;stroke-linecap:round;stroke-linejoin:round;stroke-opacity:1;paint-order:markers stroke fill"
         d="M 660.62109,93.990234 V 629.73828 l 37.59766,112.78906 37.5957,-112.78906 V 93.990234 Z"
         transform="scale(0.26458333)" />
    </g>
    <path
       id="rect833"
       style="fill:#000000;fill-opacity:1;stroke:#050000;stroke-width:1.29683;stroke-linecap:round;stroke-linejoin:round;stroke-opacity:1;paint-order:markers stroke fill"
       d="m 48.777439,142.46588 v 11.73949 h 19.58169 c 7.57908,0 13.68101,6.10195 13.68101,13.681 0,7.57906 -6.10193,13.6806 -13.68101,13.6806 h -19.58169 c -27.88175,2.30539 -46.8561585,5.05615 0,11.09844 h 12.59431 c 18.68795,0 33.73287,-11.19451 33.73287,-25.09976 0,-13.90525 -15.04492,-25.09977 -33.73287,-25.09977 z"
       sodipodi:nodetypes="ccsssccsssc" />
    <text
       xml:space="preserve"
       style="font-size:8.35203px;line-height:1.25;font-family:sans-serif;letter-spacing:0px;fill:#ffffff;stroke-width:0.208801"
       x="202.11176"
       y="135.54753"
       id="text963"
       transform="scale(1.0064884,0.99355343)"><tspan
         sodipodi:role="line"
         id="tspan961"
         x="202.11176"
         y="135.54753"
         style="fill:#ffffff;stroke-width:0.208801">Life</tspan></text>
    <text
       xml:space="preserve"
       style="font-size:7.34631px;line-height:1.25;font-family:sans-serif;letter-spacing:0px;fill:#ffffff;stroke-width:0.183658"
       x="37.843906"
       y="73.073334"
       id="text959"
       transform="scale(1.0184619,0.98187277)"><tspan
         sodipodi:role="line"
         id="tspan957"
         x="37.843906"
         y="73.073334"
         style="fill:#ffffff;stroke-width:0.183658">Omega</tspan></text>
    <path
       id="rect833-8"
       style="fill:#000000;fill-opacity:1;stroke:#050000;stroke-width:1.29683;stroke-linecap:round;stroke-linejoin:round;stroke-opacity:1;paint-order:markers stroke fill"
       d="m 48.777439,64.263696 v 11.73949 h 19.58169 c 7.57908,0 13.68101,6.10195 13.68101,13.681004 0,7.57906 -6.10193,13.6806 -13.68101,13.6806 h -39.12116 v 11.09844 h 32.13378 c 18.68795,0 33.73287,-11.19451 33.73287,-25.09976 0,-13.905254 -15.04492,-25.099774 -33.73287,-25.099774 z"
       sodipodi:nodetypes="ccsssccsssc" />
    <path
       id="rect916"
       style="fill:#000000;fill-opacity:1;stroke:#000000;stroke-width:1.81843;stroke-linecap:round;stroke-linejoin:round;stroke-opacity:1;paint-order:markers stroke fill"
       d="m 53.844529,18.473667 32.61249,4.23333 c 2.66569,0.34603 4.8456,2.35938 4.8456,5.29009 v 6.17685 c 0,2.93071 -2.17991,4.94406 -4.8456,5.29009 l -32.61249,4.23333 c -2.66569,0.34603 -8.31469,-6.539045 -11.24035,-6.711143 -54.355258,-3.197368 0,-14.64351 0,-14.64351 0,-2.93071 8.57466,-4.215067 11.24035,-3.869037 z"
       sodipodi:nodetypes="sssssssss" />
    <ellipse
       style="fill:#ffffff;fill-opacity:1;stroke:#000000;stroke-width:1.9;stroke-linecap:round;stroke-linejoin:round;stroke-opacity:1;paint-order:markers stroke fill"
       id="path982"
       cx="56.895302"
       cy="23.949722"
       rx="8.1178589"
       ry="1.2128819" />
    <text
       xml:space="preserve"
       style="font-size:10.5833px;line-height:1.25;font-family:sans-serif;letter-spacing:0px;stroke-width:0.264583"
       x="-164.72165"
       y="38.753799"
       id="text986"
       transform="rotate(-91.346362)"><tspan
         sodipodi:role="line"
         id="tspan984"
         x="-164.72165"
         y="38.753799"
         style="stroke-width:0.264583">Omega</tspan></text>
    <text
       xml:space="preserve"
       style="font-size:10.5833px;line-height:1.25;font-family:sans-serif;letter-spacing:0px;stroke-width:0.264583"
       x="-79.71196"
       y="41.151932"
       id="text986-2"
       transform="rotate(-91.346362)"
       inkscape:transform-center-x="28.421053"
       inkscape:transform-center-y="2.1315789"><tspan
         sodipodi:role="line"
         id="tspan984-1"
         x="-79.71196"
         y="41.151932"
         style="stroke-width:0.264583">Life</tspan></text>
  </g>
</svg>
